<svg version="1.0" xmlns="http://www.w3.org/2000/svg" width="160" height="60" viewBox="0 0 5060.000000 2337.000000" fill="black"><g transform="translate(0.000000,2337.000000) scale(0.100000,-0.100000)" stroke="none"><path d="M35450 14795 l0 -6195 1245 0 1245 0 0 6195 0 6195 -1245 0 -1245 0 0 -6195z"></path><path d="M43935 18424 c-329 -25 -517 -49 -748 -95 -859 -173 -1648 -577 -2310 -1183 -988 -906 -1531 -1953 -1662 -3211 -22 -212 -31 -690 -16 -911 85 -1267 565 -2317 1472 -3222 1154 -1153 2632 -1636 4414 -1441 1635 178 2850 826 3658 1950 107 150 219 328 212 339 -11 18 -1676 1331 -1684 1328 -4 -2 -43 -46 -86 -98 -96 -116 -290 -311 -405 -407 -390 -325 -879 -569 -1415 -706 -947 -243 -1745 -151 -2384 273 -164 109 -347 259 -325 267 5 2 1433 827 3174 1832 l3165 1828 -2 34 c-2 44 -91 319 -155 479 -337 849 -964 1573 -1839 2123 -739 465 -1436 715 -2239 803 -137 14 -703 27 -825 18z m499 -2379 c428 -50 806 -190 1178 -437 76 -51 137 -93 135 -94 -12 -12 -4061 -2344 -4064 -2341 -9 9 -3 512 7 617 43 436 177 832 387 1150 95 142 155 216 281 344 402 408 950 686 1497 760 137 19 422 19 579 1z"></path><path d="M6030 18409 c-630 -45 -1231 -202 -1775 -463 -719 -346 -1386 -903 -1909 -1596 -532 -704 -842 -1500 -943 -2420 -22 -207 -26 -871 -5 -1070 127 -1220 593 -2200 1458 -3064 856 -855 1837 -1327 3009 -1451 207 -22 717 -31 930 -16 1107 78 2021 444 2863 1148 156 129 543 517 672 672 266 321 456 607 629 951 303 598 466 1211 512 1920 14 226 6 693 -16 905 -123 1176 -599 2158 -1467 3025 -892 891 -1944 1374 -3178 1460 -168 11 -612 11 -780 -1z m710 -2329 c542 -68 1026 -308 1428 -709 471 -470 732 -1007 807 -1661 22 -184 16 -617 -10 -780 -93 -596 -338 -1093 -744 -1512 -202 -209 -408 -369 -634 -492 -533 -291 -1218 -362 -1837 -192 -362 100 -700 292 -991 562 -679 633 -981 1474 -873 2434 70 623 342 1178 799 1635 211 211 429 368 677 490 282 138 542 207 908 239 73 6 378 -3 470 -14z"></path><path d="M17320 18409 c-676 -54 -1274 -247 -1778 -575 -119 -78 -276 -194 -358 -265 l-49 -42 -3 301 -2 302 -1240 0 -1240 0 0 -6065 0 -6065 1240 0 1240 0 0 1606 c0 1563 1 1606 19 1593 10 -8 65 -52 122 -98 505 -406 1147 -666 1854 -750 268 -32 683 -41 960 -21 1093 80 2005 447 2835 1141 161 134 470 437 612 600 699 805 1081 1686 1195 2754 14 132 18 253 18 545 0 292 -4 413 -18 545 -114 1068 -496 1949 -1195 2754 -142 162 -451 466 -611 600 -830 692 -1759 1066 -2841 1141 -169 11 -608 11 -760 -1z m690 -2329 c447 -56 863 -233 1215 -517 434 -349 777 -857 924 -1366 86 -299 115 -534 108 -892 -7 -364 -47 -605 -152 -905 -185 -529 -578 -1036 -1046 -1349 -416 -280 -836 -405 -1359 -404 -256 0 -406 17 -626 73 -611 155 -1162 571 -1528 1155 -384 611 -509 1406 -340 2165 170 763 726 1470 1426 1815 281 138 541 207 908 239 73 6 378 -3 470 -14z"></path><path d="M28475 18414 c-22 -2 -98 -9 -170 -15 -603 -50 -1203 -217 -1735 -484 -489 -245 -907 -551 -1330 -975 -854 -853 -1329 -1824 -1454 -2976 -73 -662 -15 -1404 154 -2004 232 -818 650 -1518 1290 -2160 822 -824 1772 -1298 2885 -1440 312 -40 764 -52 1051 -30 834 66 1507 320 2092 789 l112 90 0 -304 0 -305 1245 0 1245 0 0 4765 0 4765 -1245 0 -1245 0 0 -307 0 -307 -32 30 c-99 93 -324 256 -483 351 -445 267 -931 426 -1525 499 -127 15 -747 28 -855 18z m702 -2343 c530 -79 963 -301 1364 -701 240 -239 395 -446 529 -710 146 -288 226 -543 277 -885 28 -188 25 -659 -5 -854 -65 -411 -204 -776 -421 -1103 -126 -188 -203 -282 -370 -448 -267 -266 -553 -454 -873 -574 -446 -166 -960 -199 -1443 -90 -336 75 -683 246 -975 481 -116 92 -308 286 -408 411 -389 486 -585 1023 -609 1672 -24 653 162 1268 535 1767 430 574 981 925 1617 1028 243 39 541 41 782 6z"></path><path d="M36350 6125 l0 -335 -210 0 -210 0 0 -305 0 -305 210 0 210 0 0 -634 c0 -676 3 -726 52 -876 96 -300 331 -496 678 -565 112 -22 327 -30 449 -16 186 22 385 86 461 148 l24 20 -103 279 c-57 154 -105 280 -106 282 -2 2 -20 -7 -42 -21 -73 -46 -153 -69 -253 -74 -81 -4 -104 -2 -155 17 -77 29 -144 96 -176 176 l-24 59 -3 603 -3 602 341 0 340 0 0 305 0 305 -340 0 -340 0 0 335 0 335 -400 0 -400 0 0 -335z"></path><path d="M17968 5889 c-503 -39 -938 -296 -1174 -695 -241 -408 -244 -987 -7 -1399 199 -346 535 -585 948 -674 210 -46 495 -52 705 -16 259 45 503 163 674 325 107 101 256 325 231 349 -14 13 -594 331 -604 331 -5 0 -28 -29 -51 -65 -62 -95 -163 -186 -262 -234 -113 -56 -205 -74 -338 -68 -200 11 -329 66 -460 197 -144 144 -198 276 -207 511 -7 174 10 267 73 397 111 230 325 368 590 380 255 11 467 -95 607 -303 22 -33 41 -61 42 -63 2 -2 602 325 614 335 8 6 -43 105 -90 178 -193 296 -548 481 -990 515 -146 11 -146 11 -301 -1z"></path><path d="M20905 5890 c-676 -56 -1189 -491 -1310 -1110 -23 -118 -31 -354 -15 -476 83 -662 585 -1136 1285 -1214 177 -20 390 -10 570 26 418 84 787 353 979 714 103 194 149 396 149 655 1 190 -14 298 -63 455 -113 367 -406 678 -784 835 -226 93 -538 138 -811 115z m365 -685 c331 -102 523 -427 481 -814 -21 -195 -86 -337 -210 -462 -136 -136 -305 -197 -516 -186 -224 12 -403 110 -519 286 -57 85 -82 144 -108 251 -29 119 -28 302 1 424 61 254 246 444 493 507 92 24 293 20 378 -6z"></path><path d="M24609 5890 c-284 -27 -522 -125 -702 -290 l-57 -52 0 156 0 156 -385 0 -385 0 0 -1370 0 -1370 400 0 400 0 0 688 c0 840 6 909 87 1072 98 196 313 319 559 320 278 0 454 -129 526 -387 22 -77 22 -90 26 -885 l3 -808 400 0 400 0 -4 893 c-3 784 -5 903 -20 984 -68 372 -247 627 -542 775 -187 95 -465 141 -706 118z"></path><path d="M27760 5889 c-377 -29 -706 -175 -961 -429 -207 -204 -327 -437 -374 -725 -19 -117 -19 -373 0 -490 71 -437 338 -796 744 -1000 198 -99 422 -152 686 -162 437 -17 793 102 1054 352 94 90 152 167 204 271 l36 71 -303 167 c-166 91 -307 166 -312 166 -5 0 -19 -17 -31 -38 -79 -136 -217 -248 -369 -298 -80 -26 -102 -29 -219 -29 -108 0 -143 4 -205 23 -302 95 -476 329 -496 667 -23 389 185 693 532 776 115 27 284 23 384 -11 145 -48 278 -152 364 -283 34 -52 39 -56 59 -45 48 25 515 282 554 304 l43 25 -31 62 c-51 102 -126 201 -212 284 -213 204 -482 313 -842 343 -133 11 -154 11 -305 -1z"></path><path d="M30670 5890 c-598 -47 -1068 -404 -1238 -940 -86 -270 -90 -618 -10 -885 60 -204 174 -393 332 -550 305 -304 724 -450 1236 -432 422 15 734 130 972 357 l90 85 -214 232 c-183 200 -215 230 -229 220 -9 -7 -43 -34 -75 -60 -69 -57 -234 -139 -320 -161 -237 -60 -514 -34 -705 65 -159 83 -301 256 -334 407 l-7 32 1026 0 c571 0 1027 4 1030 9 13 21 18 293 7 396 -38 353 -168 628 -406 853 -231 219 -522 343 -873 372 -128 11 -142 11 -282 0z m338 -624 c180 -49 327 -169 412 -337 25 -49 60 -158 60 -188 0 -8 -185 -11 -660 -11 -750 0 -674 -11 -644 91 59 199 206 356 398 426 118 43 312 52 434 19z"></path><path d="M34235 5890 c-273 -26 -488 -117 -657 -278 l-58 -55 0 151 0 152 -380 0 -380 0 0 -1860 0 -1860 400 0 400 0 0 626 0 626 53 -48 c203 -184 487 -275 817 -261 362 14 654 135 896 369 194 188 314 408 376 691 20 90 22 131 22 347 0 215 -2 257 -21 342 -62 273 -179 494 -358 674 -243 244 -545 372 -920 387 -60 3 -146 2 -190 -3z m160 -675 c158 -33 314 -142 406 -283 84 -127 119 -259 119 -441 0 -237 -65 -412 -207 -556 -76 -77 -152 -124 -258 -161 -73 -26 -92 -28 -220 -28 -125 0 -149 3 -221 27 -224 74 -385 254 -450 502 -25 98 -25 332 0 430 39 150 124 289 228 374 67 55 194 117 278 135 86 19 238 19 325 1z"></path><path d="M12640 4470 l0 -410 1250 0 1250 0 0 410 0 410 -1250 0 -1250 0 0 -410z"></path></g></svg>
