<?xml version="1.0" standalone="no"?>
<!DOCTYPE svg PUBLIC "-//W3C//DTD SVG 20010904//EN"
 "http://www.w3.org/TR/2001/REC-SVG-20010904/DTD/svg10.dtd">
<svg version="1.0" xmlns="http://www.w3.org/2000/svg"
 width="450.000000pt" height="450.000000pt" viewBox="0 0 450.000000 450.000000"
 preserveAspectRatio="xMidYMid meet">
<rect x="50" y="150" width="350.000000" height="150.000000" fill="#FFFFFF"/>
<g transform="translate(0.000000,450.000000) scale(0.100000,-0.100000)"
fill="#000000" stroke="none">
<path d="M1860 4379 c-532 -25 -936 -125 -1179 -292 -311 -213 -482 -565 -545
-1117 -37 -326 -45 -988 -16 -1290 56 -579 179 -913 423 -1147 138 -132 272
-210 481 -278 295 -97 644 -135 1226 -135 778 0 1220 85 1534 294 247 165 398
404 490 776 63 257 81 446 92 950 29 1450 -267 1998 -1175 2174 -320 63 -841
88 -1331 65z m1230 -1914 l0 -415 -80 0 -80 0 0 415 0 415 80 0 80 0 0 -415z
m-1965 213 c66 -34 129 -100 163 -168 22 -46 27 -68 27 -135 0 -71 -4 -89 -33
-147 -61 -124 -167 -191 -302 -191 -62 0 -89 6 -133 26 -283 129 -270 520 21
630 70 26 191 19 257 -15z m758 -1 c62 -31 124 -94 158 -159 30 -58 38 -187
16 -253 -63 -183 -284 -283 -444 -201 l-53 26 0 -105 0 -105 -80 0 -80 0 0
405 0 405 80 0 c64 0 80 -3 80 -15 0 -19 10 -19 35 -1 66 45 199 46 288 3z
m721 5 c44 -26 46 -26 46 -7 0 12 16 15 85 15 l85 0 0 -320 0 -320 -85 0 c-76
0 -85 2 -85 18 0 18 -4 17 -51 -6 -40 -20 -65 -25 -124 -25 -131 1 -237 69
-297 191 -29 59 -33 76 -33 147 1 65 6 91 26 135 40 86 125 160 219 191 48 16
174 4 214 -19z m1048 1 c80 -36 179 -145 178 -195 -1 -7 -95 -67 -209 -133
-115 -66 -207 -124 -204 -128 10 -16 72 -37 110 -37 58 0 108 17 155 54 l43
32 52 -40 c29 -23 52 -44 52 -48 1 -5 -15 -26 -35 -48 -90 -99 -280 -133 -418
-75 -54 23 -133 100 -164 160 -37 72 -42 188 -13 266 36 95 118 174 214 205
59 20 180 13 239 -13z m-612 -798 c0 -20 5 -25 26 -25 33 0 30 -33 -4 -38 -19
-3 -22 -9 -22 -48 0 -40 2 -44 24 -44 15 0 26 -7 29 -19 7 -28 -45 -39 -78
-17 -22 14 -25 24 -25 71 0 42 -3 55 -15 55 -8 0 -15 9 -15 19 0 10 7 21 15
25 8 3 15 15 15 26 0 15 7 20 25 20 20 0 25 -5 25 -25z m-1219 -35 c24 -20 24
-20 5 -35 -18 -13 -22 -13 -38 2 -27 24 -68 4 -68 -35 0 -15 5 -33 12 -40 15
-15 51 -15 66 0 8 8 15 8 27 -2 22 -18 19 -28 -16 -46 -43 -22 -91 -11 -123
27 -29 34 -32 62 -12 98 28 51 105 67 147 31z m210 -9 c52 -52 34 -128 -36
-151 -100 -33 -178 78 -106 151 23 23 38 29 71 29 33 0 48 -6 71 -29z m119 19
c0 -7 6 -7 19 0 31 16 69 12 91 -10 16 -16 20 -33 20 -90 0 -68 -1 -70 -25
-70 -23 0 -24 4 -27 63 -3 56 -5 62 -26 65 -38 6 -52 -15 -52 -74 0 -51 -1
-54 -25 -54 -25 0 -25 1 -25 90 0 89 0 90 25 90 14 0 25 -5 25 -10z m331 -10
c23 -19 23 -20 5 -34 -16 -13 -21 -13 -42 0 -42 28 -89 -20 -64 -66 11 -21 64
-28 75 -10 10 15 45 -7 39 -25 -3 -8 -21 -19 -40 -25 -100 -33 -177 78 -105
151 36 36 96 40 132 9z m200 -9 c17 -17 29 -40 29 -55 0 -26 -1 -26 -71 -26
-64 0 -70 -2 -58 -16 9 -11 26 -15 58 -12 57 4 70 -22 21 -42 -39 -16 -102 0
-125 33 -41 59 6 147 80 147 27 0 44 -8 66 -29z m235 4 c39 -39 36 -98 -7
-137 -31 -30 -58 -35 -90 -18 -17 10 -19 7 -19 -30 0 -36 -2 -40 -25 -40 l-25
0 0 124 0 124 71 0 c62 1 74 -2 95 -23z m-1356 -70 c0 -25 -1 -25 -80 -25 -79
0 -80 0 -80 25 0 25 1 25 80 25 79 0 80 0 80 -25z"/>
<path d="M927 2545 c-76 -27 -117 -88 -117 -177 0 -125 123 -211 233 -164 93
40 133 153 88 251 -22 49 -48 73 -98 91 -47 16 -59 16 -106 -1z"/>
<path d="M1684 2549 c-42 -12 -100 -78 -114 -130 -33 -121 61 -238 181 -227
109 11 184 128 149 233 -17 52 -75 113 -118 125 -43 12 -56 11 -98 -1z"/>
<path d="M2427 2546 c-72 -26 -117 -92 -117 -170 0 -56 14 -93 48 -130 75 -80
201 -70 262 21 21 30 25 48 25 108 0 63 -3 76 -28 108 -48 63 -122 88 -190 63z"/>
<path d="M3428 2530 c-20 -11 -45 -34 -56 -52 -21 -35 -40 -123 -25 -117 35
15 263 152 263 159 0 13 -59 30 -104 30 -23 -1 -57 -10 -78 -20z"/>
<path d="M1938 1818 c-21 -18 -27 -39 -17 -66 7 -19 15 -23 41 -20 43 4 61 47
33 78 -21 23 -35 25 -57 8z"/>
<path d="M2582 1818 c-21 -21 -13 -28 33 -28 25 0 45 4 45 8 0 15 -24 32 -45
32 -12 0 -26 -5 -33 -12z"/>
<path d="M2816 1814 c-32 -31 -14 -84 29 -84 27 0 45 18 45 46 0 25 -24 54
-45 54 -7 0 -21 -7 -29 -16z"/>
</g>
</svg>
